# xmcd
#
# Track frame offsets: 
#        150
#        15812
#        23487
#        31667
#        43307
#        56602
#        62427
#        72295
#        84955
#        93517
#        106892
#        119232
#        134782
#        144297
#        154225
#        164110
#        177330
#
# Disc length: 2371 seconds
#
# Revision: 2
# Processed by: cddbd v1.5.2PL0 Copyright (c) Steve Scherf et al.
# Submitted via: ExactAudioCopy v0.99pb4
#
DISCID=e3094111
DTITLE=Jimmy - Cryin' Cowboy
DYEAR=1994
DGENRE=Folk/Rock
TTITLE0=Gentle On My Mind
TTITLE1=Tennessee Waltz
TTITLE2=Cottonfields
TTITLE3=Fishin' Blues
TTITLE4=And It Stoned Me
TTITLE5=Mississippi Miss
TTITLE6=Banana Boat Song (Dya-O)
TTITLE7=Spanish Harlem Incident
TTITLE8=Walk Right In
TTITLE9=Take Me Home, Country Road
TTITLE10=Puff The Magic Dragon
TTITLE11=My Girl
TTITLE12=Riot In Cell Block #9
TTITLE13=Cryin' Cowboy
TTITLE14=Adilita
TTITLE15=Crying' In The Rain
TTITLE16=(reprise)
EXTD=
EXTT0=
EXTT1=
EXTT2=
EXTT3=
EXTT4=
EXTT5=
EXTT6=
EXTT7=
EXTT8=
EXTT9=
EXTT10=
EXTT11=
EXTT12=
EXTT13=
EXTT14=
EXTT15=
EXTT16=
PLAYORDER=
